<svg width="280" height="160" viewBox="0 0 280 160" xmlns="http://www.w3.org/2000/svg"><path d="M11.333333015441895,9 L11.333333015441895,9" stroke="black" strokeWidth="3" fill="none" strokeLinecap="round"/><path d="M57.33333206176758,59.33333206176758 L57.33333206176758,59.33333206176758 L53.33333206176758,90.64237213134766 L68.7733154296875,126.32662200927734 L92.93355560302734,123.7864990234375 L126.56881713867188,60.1956787109375 L131.3333282470703,35.01409912109375 L121.80266571044922,31.26627540588379 L75.84949493408203,63.2718505859375 L61.04448318481445,78.95552825927734 L56.16666793823242,83.66666412353516 L57.77036666870117,82.93778228759766 L111.6741714477539,55.11848831176758 L139.24586486816406,47.08416748046875 L164.6875762939453,49.01045608520508 L172.1197967529297,60.359375 L164.4914093017578,89.876953125 L144.14796447753906,106.926025390625 L123.08554077148438,112.33333587646484 L103.7271957397461,110.24239349365234 L86.71163940429688,90.6124267578125 L86,73.01627349853516 L90.68820190429688,59.6451416015625 L94.32241821289062,55.67757034301758 L104.95166778564453,55.90458297729492 L127.933349609375,69.07999420166016 L157.2648162841797,85.39920806884766 L170.6739501953125,92.00362396240234 L192.7974853515625,101.39876556396484 L203.99810791015625,105 L209,107.29593658447266 L210.3333282470703,108" stroke="black" strokeWidth="3" fill="none" strokeLinecap="round"/></svg>