<svg width="280" height="160" xmlns="http://www.w3.org/2000/svg"><path d="M35,72.66666412353516 L36.55477523803711,89.21907806396484 L38.85906982421875,98.76961517333984 L42.20307540893555,108.38187408447266 L45.98191452026367,114.80619049072266 L50.08258056640625,118.94393157958984 L53.8763542175293,120.33333587646484 L61.3270149230957,119.1446533203125 L76.7547836303711,110.698974609375 L93.1781997680664,97.87296295166016 L108.73990631103516,82.93721771240234 L120.5722885131836,70.80859375 L131.8012237548828,57.5321044921875 L135.4495086669922,49.76768112182617 L137.3333282470703,41.54396438598633 L136.1564178466797,34.62565231323242 L128.08370971679688,25.38913917541504 L116.47140502929688,22.33333396911621 L97.27509307861328,23.85906982421875 L81.65233612060547,29.29184913635254 L64.85990142822266,38.7667236328125 L57.283782958984375,45.049560546875 L50.323944091796875,52.67604446411133 L46.9514274597168,57.5728759765625 L46,61.15205764770508 L46.89775466918945,62.44889450073242 L58.32978439331055,62.88920211791992 L87.04199981689453,60.58650588989258 L116.48587799072266,60.40535354614258 L139.79803466796875,62.69950485229492 L145.85118103027344,65.88838958740234 L150.5948944091797,74.04618072509766 L150.4165802001953,81.8338623046875 L144.42857360839844,92.9251708984375 L134.7569122314453,103.62154388427734 L124.61705780029297,108.57210540771484 L112.4144515991211,110.75032806396484 L99.83300018310547,110.611083984375 L83.98314666748047,107.941650390625 L71.82882690429688,103.9315185546875 L63.900726318359375,99.175537109375 L57.71480178833008,91.06417083740234 L57.29640579223633,86.11080169677734 L64.51728057861328,74.48270416259766 L83.28624725341797,62.92118453979492 L107.32681274414062,56.26863479614258 L128.94764709472656,53.23095703125 L148.34857177734375,54.27687454223633 L165.36187744140625,62.0203857421875 L178.2478790283203,74.56412506103516 L182.94847106933594,84.40897369384766 L184.7570343017578,92.36148834228516 L189.88525390625,101.7012939453125 L194.7901611328125,104.55908203125 L200.6666717529297,105.66666412353516" stroke="black" strokeWidth="3" fill="none" strokeLinecap="round"/></svg>