<svg width="280" height="160" viewBox="0 0 280 160" xmlns="http://www.w3.org/2000/svg"><path d="M170.3333282470703,103.66666412353516 L170.3333282470703,103.66666412353516" stroke="black" strokeWidth="3" fill="none" strokeLinecap="round"/><path d="M39.66666793823242,128.6666717529297 L98.1099624633789,11.44500732421875 L60.16666793823242,141.6666717529297 L59.52427291870117,142 L58.4209098815918,142 L57.24089431762695,142 L67.64922332763672,126.68412017822266 L83.87017822265625,114.89823150634766 L131.94818115234375,83.7098388671875 L153.34613037109375,68.923095703125 L173.1919708251953,52.141357421875 L176.3333282470703,46.89967727661133 L173.8155517578125,44.07444381713867 L145.6154327392578,48.087158203125 L127.3824462890625,64.14208984375 L119.33333587646484,81.37361907958984 L120.33333587646484,89.33040618896484 L128.7312774658203,91.33333587646484 L156.01556396484375,88.46353912353516 L175.13380432128906,82.68856048583984 L191.70860290527344,72.3123779296875 L195.3333282470703,62.75545120239258 L184.5963897705078,46.95314407348633 L174.4587860107422,43.04180908203125 L138.264404296875,61.735595703125 L131.61924743652344,73.14229583740234 L128.6666717529297,89.53304290771484 L131.14984130859375,97.48319244384766 L154.76544189453125,109.17105865478516 L189.70167541503906,119.01749420166016 L213.9658203125,129.3333282470703 L220.583251953125,133.6666717529297 L222.35899353027344,134" stroke="black" strokeWidth="3" fill="none" strokeLinecap="round"/></svg>