<svg width="280" height="160" viewBox="0 0 280 160" xmlns="http://www.w3.org/2000/svg"><path d="M139.6666717529297,93 L139.6666717529297,93" stroke="black" strokeWidth="3" fill="none" strokeLinecap="round"/><path d="M39.33333206176758,48.66666793823242 L36.264835357666016,53.4383544921875 L31,84.23983001708984 L39.02373123168945,125.37288665771484 L48.220611572265625,134.0735321044922 L65.91326904296875,130.3815155029297 L94.70352935791016,88.74117279052734 L104.51322174072266,59.37040328979492 L109,35.56748580932617 L109,31.69034767150879 L107.75994110107422,30.66666603088379 L98.23120880126953,30.66666603088379 L73.154296875,37.21958541870117 L64.4326171875,39.96689987182617 L46.48260498046875,48.85072708129883 L43.33333206176758,52.92020797729492 L52.1854362487793,62.80574417114258 L75.67401885986328,73.6697998046875 L110.96765899658203,82.2520751953125 L159.34991455078125,91.7833251953125 L170.21092224121094,95.77213287353516 L175.3333282470703,99.8404541015625 L173.21148681640625,103.5609130859375 L164.10345458984375,106.85440826416016 L145.35015869140625,106.20674896240234 L131.08961486816406,89.26888275146484 L137.05918884277344,59.75935745239258 L149.35198974609375,46.40266799926758 L162.49049377441406,42.87261962890625 L167.6954803466797,47.87654495239258 L167.5445098876953,98.94405364990234 L165.6666717529297,107.00504302978516 L169.2559356689453,105.7642822265625 L185.28541564941406,96.22469329833984 L200.00355529785156,87.66487884521484 L261.1926574707031,94.78897857666016 L264.9131164550781,101.82625579833984 L266.3333435058594,105.66666412353516" stroke="black" strokeWidth="3" fill="none" strokeLinecap="round"/></svg>