<svg width="280" height="160" viewBox="0 0 280 160" xmlns="http://www.w3.org/2000/svg"><path d="M35.33333206176758,105 L35.33333206176758,105 L62.3729133605957,96.14688873291016 L93.68820190429688,75.84944915771484 L105.5705795288086,62.64412307739258 L115.92125701904297,42.23622512817383 L116.66666412353516,34.83937454223633 L114.89922332763672,27.89920997619629 L105.73918914794922,22.66666603088379 L97.05279541015625,23.20462989807129 L85.8739242553711,29.52243995666504 L77.73175811767578,38.89149856567383 L72.08724975585938,59.98433303833008 L70.66666412353516,76.1361083984375 L70.66666412353516,91.6177978515625 L70.33333587646484,107.99105072021484 L70,113.9884033203125 L70,117.8065185546875 L70,119.16666412353516 L70.44476318359375,120.33333587646484 L71.97527313232422,120.33333587646484 L79.91891479492188,119.33333587646484 L93.42318725585938,115.81087493896484 L125.47848510742188,110.931640625 L154.73419189453125,108.66666412353516 L206.42254638671875,104.66666412353516 L230.26658630371094,103.48001861572266 L241.7692413330078,102.66666412353516 L251.3333282470703,102.33333587646484" stroke="black" strokeWidth="3" fill="none" strokeLinecap="round"/></svg>