<svg width="280" height="160" viewBox="0 0 280 160" xmlns="http://www.w3.org/2000/svg"><path d="M85.66666412353516,49 L76.3265151977539,59.00679397583008 L68.47714233398438,73.71240234375 L62.9850959777832,93.4078369140625 L62.33333206176758,111.04146575927734 L65.60723876953125,118.27388763427734 L74.02953338623047,121.42403411865234 L99.0832290649414,119.7667236328125 L113.7017822265625,112.26973724365234 L128.3809814453125,99.28568267822266 L142.72857666015625,80.91748046875 L156.9356231689453,59.42988967895508 L161.9186248779297,49.49609375 L165,39.05206298828125 L164.3333282470703,31.20882225036621 L161.38720703125,29.02693748474121 L154.5286865234375,28.66666603088379 L148.93707275390625,29.93084716796875 L139.9176788330078,35.4156494140625 L131.0821533203125,41.278564453125 L114.31997680664062,49.12001419067383 L104.12265014648438,52.84800338745117 L95.7245101928711,56.13773727416992 L91.5,57 L91.33333587646484,57.5 L92.88301849365234,58.5496826171875 L101.88976287841797,62.37052536010742 L120.29805755615234,65 L143.320556640625,67.66666412353516 L165.80906677246094,69.66666412353516 L193.8661346435547,71.33333587646484 L208.0175323486328,71.33333587646484 L219.35340881347656,71.33333587646484 L221.86671447753906,71.33333587646484 L222.5,71.33333587646484" stroke="black" strokeWidth="3" fill="none" strokeLinecap="round"/></svg>