<svg width="280" height="160" viewBox="0 0 280 160" xmlns="http://www.w3.org/2000/svg"><path d="M50.33333206176758,115.66666412353516 L58.1814079284668,107.15193939208984 L72.1531982421875,86.5404052734375 L81.68766021728516,64.93701171875 L83.9854736328125,56.05810546875 L86.33333587646484,40.19685745239258 L86.33333587646484,31.52189064025879 L84.5979995727539,23.59800148010254 L82.52765655517578,23 L78.39116668701172,27.82651710510254 L74.66666412353516,53.91084671020508 L76,86.91650390625 L76.33333587646484,102.945556640625 L74.6158676147461,117.869873046875 L63.93806076049805,131.2428741455078 L55.93316650390625,133 L46.9528923034668,131.8097686767578 L36.42014694213867,123.11576080322266 L29.0790958404541,102.31640625 L30.95612144470215,87.84220123291016 L39.710693359375,72.289306640625 L63.71867752075195,61.33333206176758 L82.27202606201172,63.5679931640625 L99.87279510498047,71.4364013671875 L110.24581146240234,78.68082427978516 L124.99071502685547,86.99691009521484 L142.48313903808594,91 L165.74192810058594,88.31827545166016 L181.9036865234375,79.14444732666016 L192.1808319091797,66.30501556396484 L192.8779754638672,48.26786422729492 L190.05999755859375,39.72666549682617 L179.69493103027344,30.36159324645996 L167.4956512451172,32.70261764526367 L150.93397521972656,53.19805908203125 L133.46156311035156,90.54695892333984 L130.3333282470703,103.96854400634766 L130.96502685546875,107.6317138671875 L153.8828887939453,107.478759765625 L185.61285400390625,90.15596771240234 L205.7272186279297,73.27278900146484 L213.3333282470703,61.06303024291992 L197.64036560058594,57.81705856323242 L143.77711486816406,84.58935546875 L122.81958770751953,98.61100006103516 L115.83333587646484,105.66666412353516 L125.29733276367188,109.65767669677734 L138.08726501464844,111.30257415771484 L195.628173828125,107.43717193603516 L225.836669921875,105.33333587646484 L251.66912841796875,106.66666412353516 L257.3333435058594,107" stroke="black" strokeWidth="3" fill="none" strokeLinecap="round"/></svg>