<svg width="280" height="160" viewBox="0 0 280 160" xmlns="http://www.w3.org/2000/svg"><path d="M61.66666793823242,47 L61.66666793823242,47 L60.66666793823242,57.2388916015625 L58.33333206176758,105.40486907958984 L59,116.64974212646484 L60.68111038208008,132.39111328125 L62.66666793823242,143.2776641845703 L62.974212646484375,144.6666717529297 L63.26100540161133,144.6666717529297 L68.9307632446289,136.4718017578125 L82.59456634521484,104.62174224853516 L102.1551513671875,45.69736862182617 L111.94249725341797,25.73567771911621 L117.1397705078125,19.66666603088379 L117.9670181274414,19.66666603088379 L118.66666412353516,43.71101760864258 L115,110.33626556396484 L117.33333587646484,148.6622772216797 L119,157.7484588623047 L120.20840454101562,157.1249237060547 L135.61851501464844,116.23954010009766 L150.94024658203125,54.87581253051758 L163.20545959472656,24.38358497619629 L166.70506286621094,20 L167.97283935546875,21.27899169921875 L171,71.62691497802734 L170,138.8883819580078 L188.13121032714844,227.858154296875 L59.33333206176758,0.3333333432674408" stroke="black" strokeWidth="3" fill="none" strokeLinecap="round"/></svg>