<svg width="280" height="160" xmlns="http://www.w3.org/2000/svg"><path d="M79.33333587646484,39 L79.33333587646484,39 L74.25858306884766,49.87223434448242 L68.38672637939453,67.47977447509766 L66.35778045654297,84.4466552734375 L65.66666412353516,100.029541015625 L65.66666412353516,111.33036041259766 L66,122.687255859375 L67.21595001220703,128.4319305419922 L69.21697235107422,131 L73.02921295166016,131.1593475341797 L88.98767852783203,122.34256744384766 L105.44429779052734,106.51126861572266 L123.16741943359375,85.88790130615234 L142.42718505859375,65.57283782958984 L157.85154724121094,50.88914108276367 L168.40771484375,41.92561721801758 L173.3609619140625,38.31951904296875 L175.98631286621094,37.33333206176758 L176.3333282470703,37.33333206176758 L175.78053283691406,37.77225875854492 L162.2593994140625,48.160400390625 L146.0066375732422,57.73779296875 L115.3302230834961,70.55660247802734 L99.5008316040039,74.39571380615234 L84.17765045166016,75.33333587646484 L73.61123657226562,72.8958740234375 L60.85150146484375,66.18485260009766 L56.79011917114258,59.370361328125 L56.84809494018555,51.94095993041992 L61.3129768371582,43.20780563354492 L73.56198120117188,34.42582321166992 L88.9666519165039,30.30000877380371 L104.09170532226562,31.35371971130371 L123.74368286132812,39.38468551635742 L138.32029724121094,50.20404052734375 L152.64451599121094,61.78226852416992 L160.62347412109375,67.4156494140625 L163.8519744873047,70.51863861083984 L165.24363708496094,71.91031646728516 L166,72.80078125 L164.1121368408203,72.66666412353516 L152.7564239501953,73 L134.6796417236328,73 L113.59747314453125,72.66666412353516 L94.19434356689453,72.66666412353516 L76.49617767333984,72.33333587646484 L65.13678741455078,71.43375396728516 L52.74354934692383,69.43587493896484 L46.30108642578125,67.15055084228516 L45.33333206176758,66.66666412353516 L46.82228469848633,65.3406982421875 L57.558502197265625,62.07853317260742 L73.67926788330078,61 L96.8634262084961,63.1177978515625 L120.1826171875,68.7275390625 L143.8197784423828,75.90360260009766 L169.69866943359375,84.34134674072266 L185.79168701171875,89.8194580078125 L198.67864990234375,93.46907806396484 L204.4054412841797,94.76802825927734 L211.0797576904297,95.66666412353516 L212.9398193359375,95.66666412353516 L213.1666717529297,95.66666412353516 L213.62767028808594,95.66666412353516 L214,95.66666412353516" stroke="black" strokeWidth="3" fill="none" strokeLinecap="round"/></svg>