<svg width="280" height="160" viewBox="0 0 280 160" xmlns="http://www.w3.org/2000/svg"><path d="M77.33333587646484,42.33333206176758 L75.1388931274414,52.68516159057617 L66.73865509033203,88.30672454833984 L64.22713470458984,101.97054290771484 L63,117.85445404052734 L64,124.61580657958984 L69.70974731445312,131.6810302734375 L83.2756118774414,133.3333282470703 L107.19934844970703,132.0934600830078 L124.72232818603516,127.30550384521484 L139.2113494873047,120.06099700927734 L156.82020568847656,104.43636322021484 L163.50958251953125,94.72603607177734 L169.10243225097656,79.0260009765625 L170.32041931152344,71.35916900634766 L169.1917266845703,62.38346481323242 L165.17381286621094,55.560302734375 L148.04383850097656,49.66666793823242 L128.32887268066406,53.22371292114258 L96.65267944335938,75.92716217041016 L88.1067886352539,84.26212310791016 L83.46843719482422,88.33333587646484 L82.33333587646484,88.30635833740234 L85.45663452148438,77.4200439453125 L117.41756439208984,50.257080078125 L134.2283477783203,41.70166015625 L145.81544494628906,40 L169.29449462890625,52.50376510620117 L181.49598693847656,85.57730865478516 L187.9274444580078,104.188232421875 L197.89695739746094,121.56363677978516 L200.3333282470703,124.33333587646484" stroke="black" strokeWidth="3" fill="none" strokeLinecap="round"/></svg>